# xmcd
#
# Track frame offsets: 
#        182
#        15147
#        25550
#        40555
#        52570
#        63315
#        74047
#        87605
#        97287
#        110602
#        128562
#        138315
#        146697
#        159297
#        171350
#        185690
#
# Disc length: 2648 seconds
#
# Revision: 6
# Processed by: cddbd v1.5.2PL0 Copyright (c) Steve Scherf et al.
# Submitted via: ExactAudioCopy v0.99pb5
#
DISCID=d30a5610
DTITLE=Various Artist - Country Gold
DYEAR=1900
DGENRE=Country
TTITLE0=Kingston Trio - Tom Dooley
TTITLE1=Johnny Russell - Jambalaya
TTITLE2=Jeanie C. Riley - Harper Valley P.T.A.
TTITLE3=Del Reeves - Girl On The Billboard
TTITLE4=Johnny Russell - King Of The Road
TTITLE5=Billy Walker - Charlie's Shoes
TTITLE6=Jimmy Dean - Big Bad John
TTITLE7=Dave Dudley - Truck Drivin' Son-Of-A-Gun
TTITLE8=Lynn Anderson - Rose Garden
TTITLE9=David Houston - Nashville
TTITLE10=Dave Dudley - Cowboy Boots
TTITLE11=Frankie Miller - Family Man
TTITLE12=Hank Thompson - Oklahoma Hills
TTITLE13=Jeanie C. Riley - Country Girl
TTITLE14=R. Dean Taylor - Indiana Wants Me
TTITLE15=Faron Young - It's Four In The Morning
EXTD=
EXTT0=
EXTT1=
EXTT2=
EXTT3=
EXTT4=
EXTT5=
EXTT6=
EXTT7=
EXTT8=
EXTT9=
EXTT10=
EXTT11=
EXTT12=
EXTT13=
EXTT14=
EXTT15=
PLAYORDER=
